# xmcd CD database file
#
# Track frame offsets:
#	150
#	13422
#	24425
#	37640
#	49102
#	62522
#	75912
#	90792
#	101267
#	109950
#	122797
#	137572
#	150845
#	162615
#	177937
#	188860
#	202867
#	217040
#	229782
#	242025
#
# Disc length: 3426 seconds
#
# Revision: 0
# Processed by: cddbd v1.5.1PL2 Copyright (c) Steve Scherf et al.
# Submitted via: CDex 1.51
#
DISCID=f20d6014
DTITLE=Nat King Cole - The Masters
DYEAR=1977
DGENRE=Jazz
TTITLE0=Sweet Lorraine
TTITLE1=Straighten Up And Fly Right
TTITLE2=It's Only A Paper Moon
TTITLE3=Honeysuckle Rose
TTITLE4=After You've Gone
TTITLE5=What Is This Feeling Called Love?
TTITLE6=The Frim Fram Sauce
TTITLE7=Sweet Georgia Brown
TTITLE8=Indiana
TTITLE9=The Old Music Master
TTITLE10=This Will Make You Laugh
TTITLE11=Gee Baby, Ain't I Good To You
TTITLE12=Is You Is Or Is You Ain't My Baby
TTITLE13=Embraceable You
TTITLE14=Do Nothing 'Til You Here From Me
TTITLE15=If You Can't Smile And Say Yes
TTITLE16=Easy Listenin' Blues
TTITLE17=I'm A Shy Guy
TTITLE18=Early Morning Blues
TTITLE19=Body And Soul
EXTD=YEAR: 1977
EXTT0=
EXTT1=
EXTT2=
EXTT3=
EXTT4=
EXTT5=
EXTT6=
EXTT7=
EXTT8=
EXTT9=
EXTT10=
EXTT11=
EXTT12=
EXTT13=
EXTT14=
EXTT15=
EXTT16=
EXTT17=
EXTT18=
EXTT19=
PLAYORDER=
